M48
; DRILL file {KiCad 9.0.3-9.0.3-0~ubuntu22.04.1} date 2025-10-06T13:47:48+0200
; FORMAT={-:-/ absolute / metric / decimal}
; #@! TF.CreationDate,2025-10-06T13:47:48+02:00
; #@! TF.GenerationSoftware,Kicad,Pcbnew,9.0.3-9.0.3-0~ubuntu22.04.1
; #@! TF.FileFunction,Plated,1,2,PTH
FMAT,2
METRIC
; #@! TA.AperFunction,Plated,PTH,ComponentDrill
T1C0.600
; #@! TA.AperFunction,Plated,PTH,ComponentDrill
T2C0.700
; #@! TA.AperFunction,Plated,PTH,ViaDrill
T3C0.800
; #@! TA.AperFunction,Plated,PTH,ComponentDrill
T4C0.800
; #@! TA.AperFunction,Plated,PTH,ComponentDrill
T5C0.890
; #@! TA.AperFunction,Plated,PTH,ComponentDrill
T6C0.900
; #@! TA.AperFunction,Plated,PTH,ComponentDrill
T7C1.000
; #@! TA.AperFunction,Plated,PTH,ComponentDrill
T8C2.010
%
G90
G05
T2
X135.255Y-120.65
X135.89Y-135.89
X138.43Y-102.235
X138.43Y-107.315
X140.335Y-88.9
X140.335Y-93.98
X140.335Y-120.65
X140.97Y-73.025
X140.97Y-78.105
X140.97Y-135.89
X140.97Y-147.32
X140.97Y-152.4
X141.605Y-100.33
X141.605Y-105.41
X143.51Y-119.38
X143.51Y-124.46
X144.145Y-88.9
X144.145Y-93.98
X144.78Y-73.025
X144.78Y-78.105
X144.78Y-133.35
X144.78Y-138.43
X144.78Y-149.86
X144.78Y-154.94
X146.05Y-107.95
X147.955Y-83.185
X148.59Y-123.825
X151.13Y-107.95
X153.035Y-83.185
X153.67Y-123.825
X153.67Y-127.0
X155.575Y-99.695
X155.575Y-102.235
X157.48Y-87.63
X157.48Y-92.71
X158.115Y-69.215
X158.115Y-74.295
X158.115Y-147.32
X158.115Y-152.4
X158.75Y-127.0
X158.75Y-131.445
X158.75Y-136.525
X159.385Y-35.56
X159.385Y-40.64
X159.385Y-115.57
X159.385Y-120.65
X160.655Y-99.695
X160.655Y-102.235
X161.29Y-69.215
X161.29Y-74.295
X162.56Y-148.59
X162.56Y-153.67
X163.195Y-86.36
X163.195Y-91.44
X163.195Y-130.81
X163.195Y-135.89
X163.83Y-106.68
X163.83Y-111.76
X164.465Y-67.945
X164.465Y-73.025
X167.64Y-153.035
X172.72Y-153.035
T3
X120.65Y-55.88
T4
X139.7Y-112.395
X142.24Y-114.935
X144.78Y-112.395
X148.59Y-158.115
X148.9Y-142.24
X150.015Y-95.25
X151.13Y-155.575
X152.4Y-142.24
X153.035Y-54.61
X153.515Y-95.25
X153.67Y-158.115
X155.575Y-54.61
X155.575Y-109.855
X157.79Y-81.28
X158.115Y-54.61
X159.075Y-109.855
X159.54Y-142.24
X161.29Y-81.28
X163.04Y-142.24
X163.35Y-125.095
X166.85Y-125.095
X168.275Y-73.025
X168.275Y-78.105
X168.275Y-106.045
X168.405Y-133.985
X168.405Y-139.065
X169.04Y-89.535
X169.04Y-94.615
X170.815Y-75.565
X170.815Y-103.505
X170.815Y-108.585
X170.945Y-136.525
X171.58Y-92.075
T5
X131.445Y-124.079
X131.445Y-126.619
X131.572Y-104.013
X131.572Y-106.553
X131.699Y-63.881
X131.699Y-66.421
X131.826Y-43.815
X131.826Y-46.355
X131.953Y-144.145
X131.953Y-146.685
X132.08Y-83.947
X132.08Y-86.487
T6
X162.56Y-35.22
X165.1Y-35.22
T7
X115.25Y-31.275
X115.25Y-33.815
X115.25Y-59.215
X115.25Y-61.755
X115.25Y-64.295
X115.25Y-66.835
X115.25Y-69.375
X115.25Y-71.915
X115.25Y-74.455
X115.25Y-76.995
X115.25Y-79.535
X115.25Y-82.075
X115.25Y-84.615
X115.25Y-87.155
X115.25Y-89.695
X115.25Y-92.235
X115.25Y-94.775
X115.25Y-97.315
X115.25Y-99.855
X115.25Y-102.395
X115.25Y-104.935
X115.25Y-107.475
X115.25Y-110.015
X115.25Y-112.555
X115.25Y-115.095
X115.25Y-117.635
X115.25Y-120.175
X115.25Y-122.715
X115.25Y-125.255
X115.25Y-127.795
X115.25Y-130.335
X115.25Y-132.875
X115.25Y-135.415
X115.25Y-137.955
X115.25Y-140.495
X115.25Y-143.035
X115.25Y-145.575
X115.25Y-148.115
X117.79Y-59.215
X117.79Y-61.755
X117.79Y-64.295
X117.79Y-66.835
X117.79Y-69.375
X117.79Y-71.915
X117.79Y-74.455
X117.79Y-76.995
X117.79Y-79.535
X117.79Y-82.075
X117.79Y-84.615
X117.79Y-87.155
X117.79Y-89.695
X117.79Y-92.235
X117.79Y-94.775
X117.79Y-97.315
X117.79Y-99.855
X117.79Y-102.395
X117.79Y-104.935
X117.79Y-107.475
X117.79Y-110.015
X117.79Y-112.555
X117.79Y-115.095
X117.79Y-117.635
X117.79Y-120.175
X117.79Y-122.715
X117.79Y-125.255
X117.79Y-127.795
X117.79Y-130.335
X117.79Y-132.875
X117.79Y-135.415
X117.79Y-137.955
X117.79Y-140.495
X117.79Y-143.035
X117.79Y-145.575
X117.79Y-148.115
X155.655Y-60.96
X158.195Y-48.26
X165.655Y-60.96
X168.195Y-48.26
X176.21Y-59.235
X176.21Y-61.775
X176.21Y-64.315
X176.21Y-66.855
X176.21Y-69.395
X176.21Y-71.935
X176.21Y-74.475
X176.21Y-77.015
X176.21Y-79.555
X176.21Y-82.095
X176.21Y-84.635
X176.21Y-87.175
X176.21Y-89.715
X176.21Y-92.255
X176.21Y-94.795
X176.21Y-97.335
X176.21Y-99.875
X176.21Y-102.415
X176.21Y-104.955
X176.21Y-107.495
X176.21Y-110.035
X176.21Y-112.575
X176.21Y-115.115
X176.21Y-117.655
X176.21Y-120.195
X176.21Y-122.735
X176.21Y-125.275
X176.21Y-127.815
X176.21Y-130.355
X176.21Y-132.895
X176.21Y-135.435
X176.21Y-137.975
X176.21Y-140.515
X176.21Y-143.055
X176.21Y-145.595
X176.21Y-148.135
X178.75Y-31.275
X178.75Y-33.815
X178.75Y-59.235
X178.75Y-61.775
X178.75Y-64.315
X178.75Y-66.855
X178.75Y-69.395
X178.75Y-71.935
X178.75Y-74.475
X178.75Y-77.015
X178.75Y-79.555
X178.75Y-82.095
X178.75Y-84.635
X178.75Y-87.175
X178.75Y-89.715
X178.75Y-92.255
X178.75Y-94.795
X178.75Y-97.335
X178.75Y-99.875
X178.75Y-102.415
X178.75Y-104.955
X178.75Y-107.495
X178.75Y-110.035
X178.75Y-112.575
X178.75Y-115.115
X178.75Y-117.655
X178.75Y-120.195
X178.75Y-122.735
X178.75Y-125.275
X178.75Y-127.815
X178.75Y-130.355
X178.75Y-132.895
X178.75Y-135.435
X178.75Y-137.975
X178.75Y-140.515
X178.75Y-143.055
X178.75Y-145.595
X178.75Y-148.135
T8
X126.365Y-118.999
X126.365Y-129.159
X126.492Y-98.933
X126.492Y-109.093
X126.619Y-58.801
X126.619Y-68.961
X126.746Y-38.735
X126.746Y-48.895
X126.873Y-139.065
X126.873Y-149.225
X127.0Y-78.867
X127.0Y-89.027
T1
G00X145.665Y-29.51
M15
G01X145.665Y-28.91
M16
G05
G00X145.665Y-33.31
M15
G01X145.665Y-32.71
M16
G05
G00X154.305Y-29.51
M15
G01X154.305Y-28.91
M16
G05
G00X154.305Y-33.31
M15
G01X154.305Y-32.71
M16
G05
M30
